<?xml version="1.0" encoding="UTF-8" standalone="no"?>
<!DOCTYPE svg PUBLIC "-//W3C//DTD SVG 1.1//EN"
 "http://www.w3.org/Graphics/SVG/1.1/DTD/svg11.dtd">
<!-- Generated by graphviz version 2.42.3 (20191010.1750)
 -->
<!-- Title: %3 Pages: 1 -->
<svg width="1223pt" height="168pt"
 viewBox="0.00 0.00 1223.13 167.71" xmlns="http://www.w3.org/2000/svg" xmlns:xlink="http://www.w3.org/1999/xlink">
<g id="graph0" class="graph" transform="scale(1 1) rotate(0) translate(4 163.71)">
<title>%3</title>
<polygon fill="white" stroke="transparent" points="-4,4 -4,-163.71 1219.13,-163.71 1219.13,4 -4,4"/>
<!-- 1 -->
<g id="node1" class="node">
<title>1</title>
<ellipse fill="none" stroke="black" cx="68.59" cy="-79.36" rx="68.68" ry="21.43"/>
<polygon fill="none" stroke="black" points="29.59,-69.36 29.59,-89.36 59.59,-89.36 59.59,-69.36 29.59,-69.36"/>
<text text-anchor="start" x="32.54" y="-76.16" font-family="Times,serif" font-weight="bold" font-size="14.00">start</text>
<polygon fill="none" stroke="black" points="59.59,-69.36 59.59,-89.36 108.59,-89.36 108.59,-69.36 59.59,-69.36"/>
<text text-anchor="start" x="62.13" y="-75.16" font-family="Times,serif" font-size="14.00">exact: 0</text>
<polygon fill="none" stroke="black" points="28.09,-68.36 28.09,-90.36 109.09,-90.36 109.09,-68.36 28.09,-68.36"/>
</g>
<!-- 3 -->
<g id="node3" class="node">
<title>3</title>
<ellipse fill="none" stroke="black" cx="362.55" cy="-79.36" rx="144.5" ry="35.21"/>
<polygon fill="none" stroke="black" points="269.55,-79.36 269.55,-99.36 404.55,-99.36 404.55,-79.36 269.55,-79.36"/>
<text text-anchor="start" x="272.55" y="-86.16" font-family="Times,serif" font-weight="bold" font-size="14.00">Harry Potter and the</text>
<polygon fill="none" stroke="black" points="404.55,-79.36 404.55,-99.36 455.55,-99.36 455.55,-79.36 404.55,-79.36"/>
<text text-anchor="start" x="407.55" y="-85.16" font-family="Times,serif" font-size="14.00">exact: 1</text>
<polygon fill="none" stroke="black" points="269.55,-59.36 269.55,-79.36 404.55,-79.36 404.55,-59.36 269.55,-59.36"/>
<text text-anchor="start" x="272.07" y="-65.16" font-family="Bukyvede" font-size="14.00">Harry Potter and the </text>
<polygon fill="none" stroke="black" points="404.55,-59.36 404.55,-79.36 455.55,-79.36 455.55,-59.36 404.55,-59.36"/>
<text text-anchor="start" x="407.49" y="-65.16" font-family="Times,serif" font-size="14.00">UK, US</text>
<polygon fill="none" stroke="black" points="268.55,-58.36 268.55,-100.36 456.55,-100.36 456.55,-58.36 268.55,-58.36"/>
</g>
<!-- 1&#45;&gt;3 -->
<g id="edge1" class="edge">
<title>1&#45;&gt;3</title>
<path fill="none" stroke="black" d="M137.3,-79.36C158.62,-79.36 183.1,-79.36 207.88,-79.36"/>
<polygon fill="black" stroke="black" points="208.13,-82.86 218.13,-79.36 208.13,-75.86 208.13,-82.86"/>
<text text-anchor="middle" x="177.74" y="-82.16" font-family="Times,serif" font-size="14.00">UK, US</text>
</g>
<!-- 2 -->
<g id="node2" class="node">
<title>2</title>
<ellipse fill="none" stroke="black" cx="1149.37" cy="-79.36" rx="65.52" ry="21.43"/>
<polygon fill="none" stroke="black" points="1112.37,-69.36 1112.37,-89.36 1138.37,-89.36 1138.37,-69.36 1112.37,-69.36"/>
<text text-anchor="start" x="1115.26" y="-76.16" font-family="Times,serif" font-weight="bold" font-size="14.00">end</text>
<polygon fill="none" stroke="black" points="1138.37,-69.36 1138.37,-89.36 1187.37,-89.36 1187.37,-69.36 1138.37,-69.36"/>
<text text-anchor="start" x="1140.91" y="-75.16" font-family="Times,serif" font-size="14.00">exact: 4</text>
<polygon fill="none" stroke="black" points="1110.87,-68.36 1110.87,-90.36 1187.87,-90.36 1187.87,-68.36 1110.87,-68.36"/>
</g>
<!-- 4 -->
<g id="node4" class="node">
<title>4</title>
<ellipse fill="none" stroke="black" cx="666.25" cy="-124.36" rx="103.48" ry="35.21"/>
<polygon fill="none" stroke="black" points="602.25,-124.36 602.25,-144.36 681.25,-144.36 681.25,-124.36 602.25,-124.36"/>
<text text-anchor="start" x="605.25" y="-131.16" font-family="Times,serif" font-weight="bold" font-size="14.00">Philosopher</text>
<polygon fill="none" stroke="black" points="681.25,-124.36 681.25,-144.36 730.25,-144.36 730.25,-124.36 681.25,-124.36"/>
<text text-anchor="start" x="683.79" y="-130.16" font-family="Times,serif" font-size="14.00">exact: 2</text>
<polygon fill="none" stroke="black" points="602.25,-104.36 602.25,-124.36 681.25,-124.36 681.25,-104.36 602.25,-104.36"/>
<text text-anchor="start" x="604.79" y="-110.16" font-family="Bukyvede" font-size="14.00">Philosopher</text>
<polygon fill="none" stroke="black" points="681.25,-104.36 681.25,-124.36 730.25,-124.36 730.25,-104.36 681.25,-104.36"/>
<text text-anchor="start" x="684.25" y="-110.16" font-family="Times,serif" font-size="14.00">UK</text>
<polygon fill="none" stroke="black" points="601.25,-103.36 601.25,-145.36 731.25,-145.36 731.25,-103.36 601.25,-103.36"/>
</g>
<!-- 3&#45;&gt;4 -->
<g id="edge2" class="edge">
<title>3&#45;&gt;4</title>
<path fill="none" stroke="black" d="M486.26,-97.66C511.21,-101.38 537.23,-105.26 561.44,-108.87"/>
<polygon fill="black" stroke="black" points="560.94,-112.33 571.34,-110.35 561.97,-105.41 560.94,-112.33"/>
<text text-anchor="middle" x="534.91" y="-108.16" font-family="Times,serif" font-size="14.00">UK</text>
</g>
<!-- 6 -->
<g id="node6" class="node">
<title>6</title>
<ellipse fill="none" stroke="black" cx="666.25" cy="-35.36" rx="89.19" ry="35.21"/>
<polygon fill="none" stroke="black" points="612.25,-35.36 612.25,-55.36 671.25,-55.36 671.25,-35.36 612.25,-35.36"/>
<text text-anchor="start" x="615.25" y="-42.16" font-family="Times,serif" font-weight="bold" font-size="14.00">Sorcerer</text>
<polygon fill="none" stroke="black" points="671.25,-35.36 671.25,-55.36 720.25,-55.36 720.25,-35.36 671.25,-35.36"/>
<text text-anchor="start" x="673.79" y="-41.16" font-family="Times,serif" font-size="14.00">exact: 2</text>
<polygon fill="none" stroke="black" points="612.25,-15.36 612.25,-35.36 671.25,-35.36 671.25,-15.36 612.25,-15.36"/>
<text text-anchor="start" x="614.91" y="-21.16" font-family="Bukyvede" font-size="14.00">Sorcerer</text>
<polygon fill="none" stroke="black" points="671.25,-15.36 671.25,-35.36 720.25,-35.36 720.25,-15.36 671.25,-15.36"/>
<text text-anchor="start" x="674.25" y="-21.16" font-family="Times,serif" font-size="14.00">US</text>
<polygon fill="none" stroke="black" points="611.25,-14.36 611.25,-56.36 721.25,-56.36 721.25,-14.36 611.25,-14.36"/>
</g>
<!-- 3&#45;&gt;6 -->
<g id="edge3" class="edge">
<title>3&#45;&gt;6</title>
<path fill="none" stroke="black" d="M487.13,-61.33C515.56,-57.19 545.32,-52.85 572.2,-48.93"/>
<polygon fill="black" stroke="black" points="572.96,-52.35 582.35,-47.45 571.95,-45.42 572.96,-52.35"/>
<text text-anchor="middle" x="534.91" y="-58.16" font-family="Times,serif" font-size="14.00">US</text>
</g>
<!-- 5 -->
<g id="node5" class="node">
<title>5</title>
<ellipse fill="none" stroke="black" cx="914.1" cy="-79.36" rx="88.28" ry="35.21"/>
<polygon fill="none" stroke="black" points="861.1,-79.36 861.1,-99.36 917.1,-99.36 917.1,-79.36 861.1,-79.36"/>
<text text-anchor="start" x="864.1" y="-86.16" font-family="Times,serif" font-weight="bold" font-size="14.00">&#39; s Stone</text>
<polygon fill="none" stroke="black" points="917.1,-79.36 917.1,-99.36 968.1,-99.36 968.1,-79.36 917.1,-79.36"/>
<text text-anchor="start" x="920.1" y="-85.16" font-family="Times,serif" font-size="14.00">exact: 3</text>
<polygon fill="none" stroke="black" points="861.1,-59.36 861.1,-79.36 917.1,-79.36 917.1,-59.36 861.1,-59.36"/>
<text text-anchor="start" x="864.03" y="-65.16" font-family="Bukyvede" font-size="14.00">&#39;s Stone</text>
<polygon fill="none" stroke="black" points="917.1,-59.36 917.1,-79.36 968.1,-79.36 968.1,-59.36 917.1,-59.36"/>
<text text-anchor="start" x="920.04" y="-65.16" font-family="Times,serif" font-size="14.00">UK, US</text>
<polygon fill="none" stroke="black" points="859.6,-58.36 859.6,-100.36 968.6,-100.36 968.6,-58.36 859.6,-58.36"/>
</g>
<!-- 4&#45;&gt;5 -->
<g id="edge4" class="edge">
<title>4&#45;&gt;5</title>
<path fill="none" stroke="black" d="M757.75,-107.79C779.14,-103.87 801.95,-99.7 823.31,-95.79"/>
<polygon fill="black" stroke="black" points="824.13,-99.2 833.34,-93.95 822.87,-92.31 824.13,-99.2"/>
<text text-anchor="middle" x="797.6" y="-104.16" font-family="Times,serif" font-size="14.00">UK</text>
</g>
<!-- 5&#45;&gt;2 -->
<g id="edge5" class="edge">
<title>5&#45;&gt;2</title>
<path fill="none" stroke="black" d="M1002.62,-79.36C1025.83,-79.36 1050.68,-79.36 1073.17,-79.36"/>
<polygon fill="black" stroke="black" points="1073.32,-82.86 1083.32,-79.36 1073.32,-75.86 1073.32,-82.86"/>
<text text-anchor="middle" x="1043.05" y="-82.16" font-family="Times,serif" font-size="14.00">UK, US</text>
</g>
<!-- 6&#45;&gt;5 -->
<g id="edge6" class="edge">
<title>6&#45;&gt;5</title>
<path fill="none" stroke="black" d="M747.75,-49.76C771.75,-54.06 798.21,-58.79 822.8,-63.19"/>
<polygon fill="black" stroke="black" points="822.38,-66.67 832.84,-64.99 823.61,-59.78 822.38,-66.67"/>
<text text-anchor="middle" x="797.6" y="-63.16" font-family="Times,serif" font-size="14.00">US</text>
</g>
</g>
</svg>
